<?xml version="1.0" encoding="utf-8"?>
<!-- Generator: Adobe Illustrator 19.0.0, SVG Export Plug-In . SVG Version: 6.00 Build 0)  -->
<svg version="1.1" id="Ebene_1" xmlns="http://www.w3.org/2000/svg" xmlns:xlink="http://www.w3.org/1999/xlink" x="0px" y="0px"
	 width="74px" height="85px" viewBox="80.2 269.6 74 85" style="enable-background:new 80.2 269.6 74 85;" xml:space="preserve">
<style type="text/css">
	.st0{opacity:0.4;fill:url(#SVGID_1_);}
	.st1{fill:#9D3029;}
	.st2{fill:#FFFFFF;}
</style>
<g>
	<g>
		
			<radialGradient id="SVGID_1_" cx="101.1746" cy="224.1359" r="19.1957" gradientTransform="matrix(1 0 0 0.5601 0 219.0287)" gradientUnits="userSpaceOnUse">
			<stop  offset="0" style="stop-color:#000000;stop-opacity:0.7"/>
			<stop  offset="1" style="stop-color:#000000;stop-opacity:0"/>
		</radialGradient>
		<ellipse class="st0" cx="101.2" cy="344.6" rx="20.9" ry="9.7"/>
		<g>
			<g>
				<g>
					<path class="st1" d="M107,274.4c0,12.3,0,24.6,0,36.9c16.6,7.6,30.5-7.6,47.2,0c0-12.3,0-24.6,0-36.9
						C137.6,266.7,123.6,282,107,274.4z"/>
				</g>
			</g>
			<g>
				<path class="st1" d="M101.2,344.6c-1.7,0-3-1.4-3-3v-68.7c0-1.7,1.4-3,3-3c1.7,0,3,1.4,3,3v68.7
					C104.2,343.2,102.8,344.6,101.2,344.6z"/>
			</g>
		</g>
	</g>
	<g>
		<path class="st2" d="M137.3,280.2c0-0.9,0.7-1.6,1.6-1.6c0.9,0,1.6,0.7,1.6,1.6c0,0.9-0.7,1.6-1.6,1.6
			C138,281.8,137.3,281.1,137.3,280.2"/>
		<path class="st2" d="M139.5,282.3c0,0,1.5-0.1,1.5,1.5c0,0,0,4.3,0,4.3s0.1,0.7-1,0.9c0,0-4.6,1-4.6,1s-0.3,0-0.4,0.4
			c0,0-1.3,4.7-1.3,4.7s-0.1,0.8-1.1,0.5c0.1,0-0.9-0.1-0.7-1.2c0,0,1.3-5.1,1.3-5.1s0.1-1,1.3-1.2c0,0,3.1-0.6,3.1-0.6
			s0.3-0.1,0.2-0.3c0,0-0.5-1.3-0.5-1.3s-0.1-0.2-0.4-0.1c0,0-3.1,1.5-3.1,1.5s-0.8,0.4-1.1-0.4c0,0-0.5-0.8,0.3-1.4
			c0,0,5.5-3,5.5-3S138.9,282.2,139.5,282.3"/>
		<path class="st2" d="M120,294c-2.3,0-4.1,1.9-4.1,4.1s1.8,4.1,4.1,4.1c2.3,0,4.1-1.9,4.1-4.1S122.3,294,120,294z M120,299.8
			c-0.9,0-1.7-0.7-1.7-1.7c0-0.9,0.7-1.7,1.7-1.7c0.9,0,1.7,0.7,1.7,1.7C121.7,299,121,299.8,120,299.8z"/>
		<path class="st2" d="M141,289.5c-3.6,0-6.6,3-6.6,6.6c0,3.6,3,6.6,6.6,6.6c3.6,0,6.6-2.9,6.6-6.6
			C147.6,292.4,144.6,289.5,141,289.5z M141,298.6c-1.4,0-2.5-1.1-2.5-2.5s1.1-2.5,2.5-2.5c1.4,0,2.5,1.1,2.5,2.5
			C143.5,297.4,142.4,298.6,141,298.6z"/>
		<path class="st2" d="M132.6,287.7l-2-2c-0.1-0.1-0.4-0.1-0.5,0l-0.4,0.4c-0.1,0.1-0.1,0.2-0.1,0.3c0,0.1,0,0.2,0.1,0.3l0.4,0.4
			c0.1,0.1,0.1,0.3,0,0.4l-0.3,0.3c-0.1,0.1-0.2,0.1-0.3-0.1l-0.2-0.8c-0.1-0.2-0.3-0.3-0.4-0.3h-12.5c-0.1,0-0.2,0-0.2,0.1
			c-0.1,0.1-0.1,0.2,0,0.3l1.7,6.5c0.1,0.2,0.3,0.3,0.4,0.3h12.5c0.1,0,0.2,0,0.2-0.1c0.1-0.1,0.1-0.2,0-0.3l-1-4
			c0-0.2,0-0.4,0.1-0.5l0.7-0.7c0.1-0.1,0.3-0.1,0.4,0l0.4,0.4c0.1,0.1,0.4,0.1,0.5,0l0.4-0.4c0.1-0.1,0.1-0.2,0.1-0.3
			C132.7,287.9,132.7,287.8,132.6,287.7z"/>
		<path class="st2" d="M131.6,295.6l-0.3-1.1c-0.1-0.2-0.3-0.3-0.4-0.3H123c-0.1,0-0.2,0-0.2,0.1c0,0.1,0,0.1,0.1,0.2l1.2,1.3
			c0.1,0.1,0.4,0.3,0.6,0.3h6.7c0.1,0,0.2,0,0.2-0.1C131.6,295.8,131.6,295.7,131.6,295.6z"/>
	</g>
</g>
</svg>
