<?xml version="1.0" encoding="utf-8"?>
<!-- Generator: Adobe Illustrator 19.0.0, SVG Export Plug-In . SVG Version: 6.00 Build 0)  -->
<svg version="1.1" id="Ebene_1" xmlns="http://www.w3.org/2000/svg" xmlns:xlink="http://www.w3.org/1999/xlink" x="0px" y="0px"
	 width="74px" height="85px" viewBox="80.2 269.6 74 85" style="enable-background:new 80.2 269.6 74 85;" xml:space="preserve">
<style type="text/css">
	.st0{opacity:0.4;fill:url(#SVGID_1_);}
	.st1{fill:#799235;}
	.st2{fill:#FFFFFF;}
</style>
<g>
	<g>
		
			<radialGradient id="SVGID_1_" cx="101.1746" cy="224.1359" r="19.1957" gradientTransform="matrix(1 0 0 0.5601 0 219.0287)" gradientUnits="userSpaceOnUse">
			<stop  offset="0" style="stop-color:#000000;stop-opacity:0.7"/>
			<stop  offset="1" style="stop-color:#000000;stop-opacity:0"/>
		</radialGradient>
		<ellipse class="st0" cx="101.2" cy="344.6" rx="20.9" ry="9.7"/>
		<g>
			<g>
				<g>
					<path class="st1" d="M107,274.4c0,12.3,0,24.6,0,36.9c16.6,7.6,30.5-7.6,47.2,0c0-12.3,0-24.6,0-36.9
						C137.6,266.7,123.6,282,107,274.4z"/>
				</g>
			</g>
			<g>
				<path class="st1" d="M101.2,344.6c-1.7,0-3-1.4-3-3v-68.7c0-1.7,1.4-3,3-3c1.7,0,3,1.4,3,3v68.7
					C104.2,343.2,102.8,344.6,101.2,344.6z"/>
			</g>
		</g>
		<g>
			<path class="st2" d="M146.4,292.4c-0.1-0.1-0.2-0.2-0.3-0.2h-12.2l-1.2-0.9c0.1-0.5-0.2-1-0.7-1.2l-2.9-0.9l-2.1-3.1
				c0-0.5-0.2-0.9-0.6-1.2c-0.2-0.3-0.5-0.5-0.8-0.5c-0.4,0-0.8,0.2-1.1,0.5c-0.3,0.2-0.6,0.6-0.6,1.1l-0.8,6.3
				c0,0.4,0.1,0.8,0.3,1.1l-1.2,5l-2.4,3.8c-0.3,0.5-0.2,1.3,0.4,1.6c0.2,0.1,0.4,0.2,0.6,0.2c0.4,0,0.8-0.2,1-0.5l2.5-4
				c0.1-0.1,0.1-0.2,0.2-0.4l0.8-3.3l1.9,2.7l1.1,4.5c0.1,0.5,0.6,0.9,1.1,0.9c0.1,0,0.2,0,0.3,0c0.6-0.1,1-0.8,0.9-1.4l-1.1-4.8
				c0-0.1-0.1-0.3-0.2-0.4l-3.1-4.3c0-0.1,0.1-0.2,0.1-0.4l0.4-3.5l1,1.5c0.1,0.2,0.3,0.3,0.5,0.4l3.3,1c0.1,0,0.2,0,0.3,0
				c0.2,0,0.3-0.1,0.5-0.1l1.2,0.9l0.8,6.7c0,0.2,0.2,0.3,0.4,0.3h8.1c0.1,0,0.3-0.1,0.4-0.2l3.4-6.9
				C146.4,292.7,146.4,292.6,146.4,292.4z M145.4,293l-0.5,0.9h-10.7l-0.1-0.9H145.4z M144.1,295.7h-9.6l-0.1-0.9h10.2L144.1,295.7z
				 M143.2,297.4h-8.6l-0.1-0.9h9.2L143.2,297.4z M142.4,299.1h-7.5l-0.1-0.9h8.1L142.4,299.1z"/>
			<path class="st2" d="M134.8,300.2c-0.8,0-1.5,0.7-1.5,1.5s0.7,1.5,1.5,1.5c0.8,0,1.5-0.7,1.5-1.5S135.6,300.2,134.8,300.2z
				 M134.8,302.4c-0.4,0-0.7-0.3-0.7-0.7s0.3-0.7,0.7-0.7c0.4,0,0.7,0.3,0.7,0.7S135.2,302.4,134.8,302.4z"/>
			<path class="st2" d="M142.1,300.2c-0.8,0-1.5,0.7-1.5,1.5s0.7,1.5,1.5,1.5c0.8,0,1.5-0.7,1.5-1.5S143,300.2,142.1,300.2z
				 M142.1,302.4c-0.4,0-0.7-0.3-0.7-0.7s0.3-0.7,0.7-0.7s0.7,0.3,0.7,0.7S142.5,302.4,142.1,302.4z"/>
			<circle class="st2" cx="126.9" cy="282" r="2.4"/>
		</g>
	</g>
</g>
</svg>
