<?xml version="1.0" encoding="utf-8"?>
<!-- Generator: Adobe Illustrator 19.0.0, SVG Export Plug-In . SVG Version: 6.00 Build 0)  -->
<svg version="1.1" id="Ebene_1" xmlns="http://www.w3.org/2000/svg" xmlns:xlink="http://www.w3.org/1999/xlink" x="0px" y="0px"
	 width="74px" height="85px" viewBox="80.2 269.6 74 85" style="enable-background:new 80.2 269.6 74 85;" xml:space="preserve">
<style type="text/css">
	.st0{opacity:0.4;fill:url(#SVGID_1_);}
	.st1{fill:#F9C237;}
	.st2{fill:#FFFFFF;}
</style>
<g>
	<g>
		
			<radialGradient id="SVGID_1_" cx="101.1746" cy="224.1359" r="19.1957" gradientTransform="matrix(1 0 0 0.5601 0 219.0287)" gradientUnits="userSpaceOnUse">
			<stop  offset="0" style="stop-color:#000000;stop-opacity:0.7"/>
			<stop  offset="1" style="stop-color:#000000;stop-opacity:0"/>
		</radialGradient>
		<ellipse class="st0" cx="101.2" cy="344.6" rx="20.9" ry="9.7"/>
		<g>
			<g>
				<g>
					<path class="st1" d="M107,274.4c0,12.3,0,24.6,0,36.9c16.6,7.6,30.5-7.6,47.2,0c0-12.3,0-24.6,0-36.9
						C137.6,266.7,123.6,282,107,274.4z"/>
				</g>
			</g>
			<g>
				<path class="st1" d="M101.2,344.6c-1.7,0-3-1.4-3-3v-68.7c0-1.7,1.4-3,3-3c1.7,0,3,1.4,3,3v68.7
					C104.2,343.2,102.8,344.6,101.2,344.6z"/>
			</g>
		</g>
		<g>
			<path class="st2" d="M142.6,297.2c-1.6,0-2.9,1.3-2.9,2.9s1.3,2.9,2.9,2.9c1.6,0,2.9-1.3,2.9-2.9S144.2,297.2,142.6,297.2z"/>
			<path class="st2" d="M134.6,299.6v-16.8h-16.9v16.8h1.6c0.2-2.2,2.1-3.9,4.3-3.9c2.3,0,4.1,1.7,4.3,3.9H134.6z M118.5,286.9
				l3.3-3.3l1,1l-1.6,1.6h7.3v1.4h-7.3l1.6,1.6l-1,1L118.5,286.9z M122.3,292.9v-1.4h7.3l-1.6-1.6l1-1l3.3,3.3l-3.3,3.4l-1-1
				l1.6-1.7H122.3z"/>
			<path class="st2" d="M148.1,299.6l-2.4-7.1H145h-0.4H136v7.1h2.3c0.2-2.2,2.1-3.9,4.3-3.9c2.3,0,4.1,1.7,4.3,3.9H148.1z"/>
			<path class="st2" d="M123.6,297.2c-1.6,0-2.9,1.3-2.9,2.9s1.3,2.9,2.9,2.9s2.9-1.3,2.9-2.9S125.2,297.2,123.6,297.2z"/>
			<polygon class="st2" points="143.8,291.2 141,286.6 136,286.6 136,291.2 			"/>
		</g>
	</g>
</g>
</svg>
