<?xml version="1.0" encoding="utf-8"?>
<!-- Generator: Adobe Illustrator 19.0.0, SVG Export Plug-In . SVG Version: 6.00 Build 0)  -->
<svg version="1.1" id="Ebene_1" xmlns="http://www.w3.org/2000/svg" xmlns:xlink="http://www.w3.org/1999/xlink" x="0px" y="0px"
	 width="74px" height="85px" viewBox="80.2 269.6 74 85" style="enable-background:new 80.2 269.6 74 85;" xml:space="preserve">
<style type="text/css">
	.st0{opacity:0.4;fill:url(#SVGID_1_);}
	.st1{fill:#E6922C;}
	.st2{fill:#FFFFFF;}
</style>
<g>
	<g>
		
			<radialGradient id="SVGID_1_" cx="101.1746" cy="224.1359" r="19.1957" gradientTransform="matrix(1 0 0 0.5601 0 219.0287)" gradientUnits="userSpaceOnUse">
			<stop  offset="0" style="stop-color:#000000;stop-opacity:0.7"/>
			<stop  offset="1" style="stop-color:#000000;stop-opacity:0"/>
		</radialGradient>
		<ellipse class="st0" cx="101.2" cy="344.6" rx="20.9" ry="9.7"/>
		<g>
			<g>
				<g>
					<path class="st1" d="M107,274.4c0,12.3,0,24.6,0,36.9c16.6,7.6,30.5-7.6,47.2,0c0-12.3,0-24.6,0-36.9
						C137.6,266.7,123.6,282,107,274.4z"/>
				</g>
			</g>
			<g>
				<path class="st1" d="M101.2,344.6c-1.7,0-3-1.4-3-3v-68.7c0-1.7,1.4-3,3-3c1.7,0,3,1.4,3,3v68.7
					C104.2,343.2,102.8,344.6,101.2,344.6z"/>
			</g>
		</g>
	</g>
</g>
<path class="st2" d="M137.1,292.6c0-1.3-0.6-2.5-1.4-3.3l6.7-6.7l-1.9-1.8l-7.3,7.3c-0.4-0.1-0.6-0.1-0.9-0.1c-0.4,0-0.6,0-0.9,0.1
	l-7.1-7.3l-1.9,1.8l6.7,6.7c-0.8,0.8-1.4,2-1.4,3.3h1.1l-6.4,6.4l1.9,1.9l4.3-4.3l-0.8,7.8h9.5l-0.7-7.8l4.3,4.3l1.8-1.8l-6.4-6.5
	H137.1z M133.5,302h-2.4v-2.4c0-0.7,0.5-1.2,1.2-1.2c0.7,0,1.2,0.5,1.2,1.2V302z"/>
</svg>
